<svg id="id" fill="none" xmlns="http://www.w3.org/2000/svg" viewBox="0 0 20 20"><path d="M8.174 2.08c.412.182.68.594.68 1.045v2.292h4.01a6.302 6.302 0 0 1 6.303 6.302 7.022 7.022 0 0 1-3.588 6.234.586.586 0 0 1-.29.068.707.707 0 0 1-.706-.706c0-.268.154-.515.351-.698.337-.315.795-.945.795-2.03a3.438 3.438 0 0 0-3.437-3.438H8.854v2.292c0 .451-.265.863-.68 1.046a1.15 1.15 0 0 1-1.232-.194l-5.73-5.156c-.239-.222-.379-.53-.379-.856 0-.326.14-.634.38-.852l5.729-5.156c.337-.305.82-.38 1.232-.194Z" fill="currentColor"/></svg>
