<svg id="id" fill="none" xmlns="http://www.w3.org/2000/svg" viewBox="0 0 24 24"><path d="M5.625 9.75a.375.375 0 0 0-.375.375v9.75c0 .207.168.375.375.375h12.75a.375.375 0 0 0 .375-.375v-9.75a.375.375 0 0 0-.375-.375h-1.5a1.125 1.125 0 1 1 0-2.25h1.5A2.626 2.626 0 0 1 21 10.125v9.75a2.625 2.625 0 0 1-2.625 2.625H5.625A2.625 2.625 0 0 1 3 19.875v-9.75A2.626 2.626 0 0 1 5.625 7.5h1.5a1.125 1.125 0 0 1 0 2.25h-1.5Zm6.11-9.484a.374.374 0 0 1 .53 0l4.345 4.343a.375.375 0 0 1-.266.641h-3.219v8.625a1.125 1.125 0 1 1-2.25 0V5.25H7.656a.375.375 0 0 1-.265-.64L11.735.265Z" fill="currentColor"/></svg>
